{
	"asset":{
		"generator":"Khronos glTF Blender I/O v4.4.55",
		"version":"2.0"
	},
	"scene":0,
	"scenes":[
		{
			"name":"Scene",
			"nodes":[
				0
			]
		}
	],
	"nodes":[
		{
			"mesh":0,
			"name":"Model.003guhwireframe all good!!!",
			"rotation":[
				0,
				0.7071067094802856,
				0,
				0.7071068286895752
			],
			"scale":[
				0.5370831489562988,
				0.5370831489562988,
				0.5370831489562988
			],
			"translation":[
				-63.70479202270508,
				0.1483159065246582,
				-56.84346008300781
			]
		}
	],
	"materials":[
		{
			"doubleSided":true,
			"name":"Material",
			"pbrMetallicRoughness":{
				"baseColorFactor":[
					0.800000011920929,
					0.800000011920929,
					0.800000011920929,
					1
				],
				"roughnessFactor":0.5961538553237915
			}
		}
	],
	"meshes":[
		{
			"name":"Mesh.006",
			"primitives":[
				{
					"attributes":{
						"POSITION":0,
						"NORMAL":1,
						"TEXCOORD_0":2,
						"COLOR_0":3,
						"COLOR_1":4
					},
					"indices":5,
					"material":0
				}
			]
		}
	],
	"accessors":[
		{
			"bufferView":0,
			"componentType":5126,
			"count":20419,
			"max":[
				214.69775390625,
				11.972894668579102,
				466.958740234375
			],
			"min":[
				-374.6246032714844,
				-3.582269130220084e-07,
				-255.47763061523438
			],
			"type":"VEC3"
		},
		{
			"bufferView":1,
			"componentType":5126,
			"count":20419,
			"type":"VEC3"
		},
		{
			"bufferView":2,
			"componentType":5126,
			"count":20419,
			"type":"VEC2"
		},
		{
			"bufferView":3,
			"componentType":5121,
			"count":20419,
			"normalized":true,
			"type":"VEC4"
		},
		{
			"bufferView":4,
			"componentType":5123,
			"count":20419,
			"normalized":true,
			"type":"VEC4"
		},
		{
			"bufferView":5,
			"componentType":5123,
			"count":46377,
			"type":"SCALAR"
		}
	],
	"bufferViews":[
		{
			"buffer":0,
			"byteLength":245028,
			"byteOffset":0,
			"target":34962
		},
		{
			"buffer":0,
			"byteLength":245028,
			"byteOffset":245028,
			"target":34962
		},
		{
			"buffer":0,
			"byteLength":163352,
			"byteOffset":490056,
			"target":34962
		},
		{
			"buffer":0,
			"byteLength":81676,
			"byteOffset":653408,
			"target":34962
		},
		{
			"buffer":0,
			"byteLength":163352,
			"byteOffset":735084,
			"target":34962
		},
		{
			"buffer":0,
			"byteLength":92754,
			"byteOffset":898436,
			"target":34963
		}
	],
	"buffers":[
		{
			"byteLength":991192,
			"uri":"scene.bin"
		}
	]
}
