{
	"asset":{
		"generator":"Khronos glTF Blender I/O v4.4.55",
		"version":"2.0"
	},
	"scene":0,
	"scenes":[
		{
			"name":"Scene",
			"nodes":[
				0
			]
		}
	],
	"nodes":[
		{
			"mesh":0,
			"name":"BSSS Floor 2",
			"rotation":[
				0,
				0.7071066498756409,
				0,
				0.70710688829422
			],
			"scale":[
				0.537083089351654,
				0.537083089351654,
				0.537083089351654
			],
			"translation":[
				-159.53330993652344,
				0.1483159065246582,
				-56.84346008300781
			]
		}
	],
	"materials":[
		{
			"doubleSided":true,
			"name":"Material.001",
			"pbrMetallicRoughness":{
				"baseColorFactor":[
					0.800000011920929,
					0.800000011920929,
					0.800000011920929,
					1
				],
				"roughnessFactor":0.5961538553237915
			}
		}
	],
	"meshes":[
		{
			"name":"Mesh.006",
			"primitives":[
				{
					"attributes":{
						"POSITION":0,
						"NORMAL":1,
						"TEXCOORD_0":2,
						"COLOR_0":3,
						"COLOR_1":4
					},
					"indices":5,
					"material":0
				}
			]
		}
	],
	"accessors":[
		{
			"bufferView":0,
			"componentType":5126,
			"count":10312,
			"max":[
				209.57931518554688,
				11.972894668579102,
				466.958740234375
			],
			"min":[
				-374.2417297363281,
				-3.582269130220084e-07,
				127.1143798828125
			],
			"type":"VEC3"
		},
		{
			"bufferView":1,
			"componentType":5126,
			"count":10312,
			"type":"VEC3"
		},
		{
			"bufferView":2,
			"componentType":5126,
			"count":10312,
			"type":"VEC2"
		},
		{
			"bufferView":3,
			"componentType":5121,
			"count":10312,
			"normalized":true,
			"type":"VEC4"
		},
		{
			"bufferView":4,
			"componentType":5123,
			"count":10312,
			"normalized":true,
			"type":"VEC4"
		},
		{
			"bufferView":5,
			"componentType":5123,
			"count":23757,
			"type":"SCALAR"
		}
	],
	"bufferViews":[
		{
			"buffer":0,
			"byteLength":123744,
			"byteOffset":0,
			"target":34962
		},
		{
			"buffer":0,
			"byteLength":123744,
			"byteOffset":123744,
			"target":34962
		},
		{
			"buffer":0,
			"byteLength":82496,
			"byteOffset":247488,
			"target":34962
		},
		{
			"buffer":0,
			"byteLength":41248,
			"byteOffset":329984,
			"target":34962
		},
		{
			"buffer":0,
			"byteLength":82496,
			"byteOffset":371232,
			"target":34962
		},
		{
			"buffer":0,
			"byteLength":47514,
			"byteOffset":453728,
			"target":34963
		}
	],
	"buffers":[
		{
			"byteLength":501244,
			"uri":"scene.bin"
		}
	]
}
