{
	"asset":{
		"generator":"Khronos glTF Blender I/O v4.4.55",
		"version":"2.0"
	},
	"scene":0,
	"scenes":[
		{
			"name":"Scene",
			"nodes":[
				0
			]
		}
	],
	"nodes":[
		{
			"mesh":0,
			"name":"Model.003guhwireframe all good!!!",
			"rotation":[
				0,
				0.7071066498756409,
				0,
				0.70710688829422
			],
			"scale":[
				0.537083089351654,
				0.537083089351654,
				0.537083089351654
			],
			"translation":[
				46.596866607666016,
				0.1483159065246582,
				-56.84346008300781
			]
		}
	],
	"materials":[
		{
			"doubleSided":true,
			"name":"Material.001",
			"pbrMetallicRoughness":{
				"baseColorFactor":[
					0.800000011920929,
					0.800000011920929,
					0.800000011920929,
					1
				],
				"roughnessFactor":0.5961538553237915
			}
		}
	],
	"meshes":[
		{
			"name":"Mesh.006",
			"primitives":[
				{
					"attributes":{
						"POSITION":0,
						"NORMAL":1,
						"TEXCOORD_0":2,
						"COLOR_0":3,
						"COLOR_1":4
					},
					"indices":5,
					"material":0
				}
			]
		}
	],
	"accessors":[
		{
			"bufferView":0,
			"componentType":5126,
			"count":15875,
			"max":[
				214.69775390625,
				23.945690155029297,
				83.16307830810547
			],
			"min":[
				-369.50616455078125,
				-0.08874223381280899,
				-256.6813049316406
			],
			"type":"VEC3"
		},
		{
			"bufferView":1,
			"componentType":5126,
			"count":15875,
			"type":"VEC3"
		},
		{
			"bufferView":2,
			"componentType":5126,
			"count":15875,
			"type":"VEC2"
		},
		{
			"bufferView":3,
			"componentType":5121,
			"count":15875,
			"normalized":true,
			"type":"VEC4"
		},
		{
			"bufferView":4,
			"componentType":5123,
			"count":15875,
			"normalized":true,
			"type":"VEC4"
		},
		{
			"bufferView":5,
			"componentType":5123,
			"count":35967,
			"type":"SCALAR"
		}
	],
	"bufferViews":[
		{
			"buffer":0,
			"byteLength":190500,
			"byteOffset":0,
			"target":34962
		},
		{
			"buffer":0,
			"byteLength":190500,
			"byteOffset":190500,
			"target":34962
		},
		{
			"buffer":0,
			"byteLength":127000,
			"byteOffset":381000,
			"target":34962
		},
		{
			"buffer":0,
			"byteLength":63500,
			"byteOffset":508000,
			"target":34962
		},
		{
			"buffer":0,
			"byteLength":127000,
			"byteOffset":571500,
			"target":34962
		},
		{
			"buffer":0,
			"byteLength":71934,
			"byteOffset":698500,
			"target":34963
		}
	],
	"buffers":[
		{
			"byteLength":770436,
			"uri":"scene.bin"
		}
	]
}
